<svg width="383" height="64" viewBox="0 0 383 64" fill="none" xmlns="http://www.w3.org/2000/svg">
<path d="M16.301 63.873C12.5617 63.873 9.53333 62.925 7.216 61.029C4.95133 59.1857 3.29233 56.7893 2.239 53.84C1.23833 50.8907 0.738 47.8097 0.738 44.597C0.738 40.4363 1.37 36.2493 2.634 32.036C3.898 27.8227 5.60967 23.82 7.769 20.028C9.981 16.1833 12.4827 12.7863 15.274 9.837C18.0653 6.835 20.9883 4.49133 24.043 2.806C27.1503 1.068 30.205 0.198997 33.207 0.198997C35.3663 0.198997 37.1043 0.725663 38.421 1.779C39.7903 2.77966 40.475 4.51767 40.475 6.993C40.475 8.52033 40.2117 10.2583 39.685 12.207C39.1583 14.103 38.4473 15.9463 37.552 17.737C36.6567 19.475 35.656 20.9233 34.55 22.082C33.4967 23.2407 32.417 23.82 31.311 23.82C30.8897 23.82 30.442 23.6883 29.968 23.425C29.5467 23.1617 29.178 22.6877 28.862 22.003C29.652 21.1077 30.521 20.0017 31.469 18.685C32.4697 17.3157 33.4177 15.8937 34.313 14.419C35.2083 12.8917 35.9193 11.417 36.446 9.995C37.0253 8.52033 37.315 7.23 37.315 6.124C37.315 5.07066 36.999 4.228 36.367 3.596C35.7877 2.91133 34.8133 2.569 33.444 2.569C31.1793 2.569 28.8093 3.49066 26.334 5.334C23.9113 7.17733 21.5413 9.65267 19.224 12.76C16.9593 15.8147 14.9053 19.238 13.062 23.03C11.2187 26.822 9.744 30.693 8.638 34.643C7.58467 38.593 7.058 42.3587 7.058 45.94C7.058 48.5207 7.42667 50.996 8.164 53.366C8.90133 55.6833 10.0863 57.553 11.719 58.975C13.4043 60.4497 15.5637 61.187 18.197 61.187C20.9883 61.187 23.7533 60.397 26.492 58.817C29.2833 57.237 31.8377 55.1567 34.155 52.576C36.4723 49.9953 38.3157 47.204 39.685 44.202L40.791 44.992C39.053 48.4153 36.9463 51.5753 34.471 54.472C31.9957 57.316 29.2307 59.5807 26.176 61.266C23.1213 63.004 19.8297 63.873 16.301 63.873ZM41.8291 60.713C40.1964 60.713 38.8271 60.16 37.7211 59.054C36.5624 58.0007 35.9831 56.368 35.9831 54.156C35.9831 52.26 36.4044 50.2323 37.2471 48.073C38.0898 45.861 39.2484 43.7017 40.7231 41.595C42.1978 39.4357 43.8568 37.487 45.7001 35.749C47.5961 33.9583 49.5711 32.5363 51.6251 31.483C53.7318 30.4297 55.8121 29.903 57.8661 29.903C59.9201 29.903 61.6318 30.456 63.0011 31.562C64.3704 32.6153 65.0551 34.0373 65.0551 35.828C65.0551 37.1447 64.6864 38.04 63.9491 38.514C63.2644 38.988 62.3428 39.225 61.1841 39.225C61.2894 38.8037 61.3684 38.356 61.4211 37.882C61.5264 37.3553 61.5791 36.8813 61.5791 36.46C61.5791 35.2487 61.2894 34.2217 60.7101 33.379C60.1308 32.4837 59.1301 32.036 57.7081 32.036C56.2334 32.036 54.7324 32.5627 53.2051 33.616C51.6778 34.6167 50.2031 35.986 48.7811 37.724C47.3591 39.4093 46.0951 41.2527 44.9891 43.254C43.8831 45.2553 43.0141 47.2303 42.3821 49.179C41.7501 51.1277 41.4341 52.8657 41.4341 54.393C41.4341 56.447 42.1451 57.474 43.5671 57.474C44.7784 57.474 46.0951 56.921 47.5171 55.815C48.9391 54.6563 50.3874 53.208 51.8621 51.47C53.3894 49.6793 54.8378 47.836 56.2071 45.94C57.5764 44.044 58.7878 42.306 59.8411 40.726C60.0518 40.41 60.1834 40.252 60.2361 40.252C60.5521 40.3047 60.9471 40.41 61.4211 40.568C61.9478 40.726 62.3954 40.9367 62.7641 41.2C63.1328 41.4633 63.3171 41.8057 63.3171 42.227C63.3171 42.701 63.0801 43.3593 62.6061 44.202C62.1321 44.992 61.6054 45.9137 61.0261 46.967C60.4468 48.0203 59.9201 49.1 59.4461 50.206C58.9721 51.2593 58.7351 52.26 58.7351 53.208C58.7351 53.998 58.9458 54.788 59.3671 55.578C59.7884 56.3153 60.4731 56.684 61.4211 56.684C62.8431 56.684 64.7128 55.657 67.0301 53.603C69.3474 51.4963 71.6911 48.3627 74.0611 44.202L74.8511 44.992C73.7451 47.836 72.3231 50.3377 70.5851 52.497C68.8471 54.6563 66.9774 56.3417 64.9761 57.553C63.0274 58.7643 61.1051 59.37 59.2091 59.37C57.2604 59.37 55.8121 58.7907 54.8641 57.632C53.9688 56.4733 53.5211 55.2093 53.5211 53.84C53.5211 53.524 53.5474 53.1817 53.6001 52.813C53.6528 52.3917 53.7054 51.9703 53.7581 51.549C51.4934 54.6037 49.4131 56.8947 47.5171 58.422C45.6738 59.9493 43.7778 60.713 41.8291 60.713ZM86.1123 59.054C84.3216 59.054 82.8996 58.58 81.8463 57.632C80.8456 56.684 80.3453 55.4463 80.3453 53.919C80.3453 52.339 80.714 50.68 81.4513 48.942C82.1886 47.204 82.8996 45.4923 83.5843 43.807C84.3216 42.069 84.6903 40.5153 84.6903 39.146C84.6903 37.4607 84.19 36.223 83.1893 35.433C82.2413 34.5903 81.267 33.8267 80.2663 33.142C79.055 36.2493 77.791 39.1987 76.4743 41.99C75.1576 44.7813 74.078 46.888 73.2353 48.31L72.5243 46.967C73.2616 45.5977 74.2096 43.5963 75.3683 40.963C76.5796 38.3297 77.7646 35.3277 78.9233 31.957C78.3966 31.4303 78.1333 30.7983 78.1333 30.061C78.1333 28.481 78.581 27.1907 79.4763 26.19C80.3716 25.1893 81.03 24.689 81.4513 24.689C82.0306 24.689 82.3466 24.9523 82.3993 25.479C82.5046 25.953 82.5573 26.3217 82.5573 26.585C82.5573 26.8483 82.3993 27.375 82.0833 28.165C81.82 28.9023 81.6883 29.35 81.6883 29.508C81.6883 30.2453 82.0833 30.93 82.8733 31.562C83.716 32.1413 84.664 32.826 85.7173 33.616C86.7706 34.3533 87.6923 35.275 88.4823 36.381C89.325 37.4343 89.7463 38.8037 89.7463 40.489C89.7463 42.069 89.404 43.6753 88.7193 45.308C88.0873 46.9407 87.429 48.4943 86.7443 49.969C86.1123 51.4437 85.7963 52.734 85.7963 53.84C85.7963 54.788 86.0333 55.42 86.5073 55.736C86.9813 56.052 87.5343 56.21 88.1663 56.21C89.4303 56.21 90.7206 55.815 92.0373 55.025C93.4066 54.235 94.7233 53.2343 95.9873 52.023C97.2513 50.8117 98.3836 49.5477 99.3843 48.231C100.385 46.8617 101.122 45.5977 101.596 44.439L102.623 45.229C101.623 47.441 100.253 49.6267 98.5153 51.786C96.7773 53.8927 94.8286 55.6307 92.6693 57C90.5626 58.3693 88.377 59.054 86.1123 59.054ZM113.577 59.054C111.786 59.054 110.364 58.58 109.311 57.632C108.31 56.684 107.81 55.4463 107.81 53.919C107.81 52.339 108.179 50.68 108.916 48.942C109.653 47.204 110.364 45.4923 111.049 43.807C111.786 42.069 112.155 40.5153 112.155 39.146C112.155 37.4607 111.655 36.223 110.654 35.433C109.706 34.5903 108.732 33.8267 107.731 33.142C106.52 36.2493 105.256 39.1987 103.939 41.99C102.622 44.7813 101.543 46.888 100.7 48.31L99.9892 46.967C100.726 45.5977 101.674 43.5963 102.833 40.963C104.044 38.3297 105.229 35.3277 106.388 31.957C105.861 31.4303 105.598 30.7983 105.598 30.061C105.598 28.481 106.046 27.1907 106.941 26.19C107.836 25.1893 108.495 24.689 108.916 24.689C109.495 24.689 109.811 24.9523 109.864 25.479C109.969 25.953 110.022 26.3217 110.022 26.585C110.022 26.8483 109.864 27.375 109.548 28.165C109.285 28.9023 109.153 29.35 109.153 29.508C109.153 30.2453 109.548 30.93 110.338 31.562C111.181 32.1413 112.129 32.826 113.182 33.616C114.235 34.3533 115.157 35.275 115.947 36.381C116.79 37.4343 117.211 38.8037 117.211 40.489C117.211 42.069 116.869 43.6753 116.184 45.308C115.552 46.9407 114.894 48.4943 114.209 49.969C113.577 51.4437 113.261 52.734 113.261 53.84C113.261 54.788 113.498 55.42 113.972 55.736C114.446 56.052 114.999 56.21 115.631 56.21C116.895 56.21 118.185 55.815 119.502 55.025C120.871 54.235 122.188 53.2343 123.452 52.023C124.716 50.8117 125.848 49.5477 126.849 48.231C127.85 46.8617 128.587 45.5977 129.061 44.439L130.088 45.229C129.087 47.441 127.718 49.6267 125.98 51.786C124.242 53.8927 122.293 55.6307 120.134 57C118.027 58.3693 115.842 59.054 113.577 59.054ZM133.063 59.054C131.009 59.054 129.482 58.3957 128.481 57.079C127.48 55.815 126.98 54.2613 126.98 52.418C126.98 51.2067 127.191 49.6793 127.612 47.836C128.086 45.9927 128.692 44.0703 129.429 42.069C130.166 40.015 131.009 38.0927 131.957 36.302C132.958 34.5113 134.011 33.063 135.117 31.957C136.223 30.7983 137.303 30.219 138.356 30.219C138.83 30.219 139.225 30.377 139.541 30.693C139.91 30.9563 140.094 31.3777 140.094 31.957C140.094 32.589 139.673 33.616 138.83 35.038C138.04 36.46 137.092 38.0927 135.986 39.936C134.88 41.7793 133.906 43.728 133.063 45.782C132.273 47.7833 131.878 49.7057 131.878 51.549C131.878 53.445 132.194 54.709 132.826 55.341C133.458 55.973 134.432 56.289 135.749 56.289C137.54 56.289 139.436 55.3937 141.437 53.603C143.491 51.8123 145.65 48.6787 147.915 44.202L148.626 44.992C147.099 49.5213 144.887 52.9973 141.99 55.42C139.146 57.8427 136.17 59.054 133.063 59.054ZM142.543 22.872C141.7 22.872 140.937 22.6613 140.252 22.24C139.62 21.8187 139.304 21.1603 139.304 20.265C139.304 19.159 139.936 18.211 141.2 17.421C142.517 16.5783 143.807 16.157 145.071 16.157C145.861 16.157 146.493 16.3413 146.967 16.71C147.441 17.0787 147.678 17.7107 147.678 18.606C147.678 19.6067 147.125 20.581 146.019 21.529C144.966 22.4243 143.807 22.872 142.543 22.872ZM154.963 60.476C151.75 60.476 149.327 59.5807 147.695 57.79C146.115 56.052 145.325 53.8927 145.325 51.312C145.325 48.942 145.904 46.4403 147.063 43.807C148.274 41.1737 149.854 38.6983 151.803 36.381C153.804 34.0637 155.99 32.194 158.36 30.772C160.73 29.2973 163.073 28.56 165.391 28.56C166.602 28.56 167.708 28.876 168.709 29.508C169.762 30.14 170.289 31.4303 170.289 33.379C170.289 35.3803 169.683 37.2763 168.472 39.067C167.313 40.805 165.759 42.3587 163.811 43.728C161.915 45.0973 159.808 46.2297 157.491 47.125C155.226 47.9677 152.961 48.4943 150.697 48.705C150.591 49.2317 150.512 49.732 150.46 50.206C150.407 50.68 150.381 51.1277 150.381 51.549C150.381 52.339 150.46 53.129 150.618 53.919C150.828 54.709 151.171 55.4463 151.645 56.131C152.119 56.763 152.751 57.2633 153.541 57.632C154.383 58.0007 155.41 58.185 156.622 58.185C158.886 58.185 161.125 57.553 163.337 56.289C165.549 54.9723 167.603 53.2607 169.499 51.154C171.395 49.0473 173.001 46.73 174.318 44.202L175.266 44.913C173.844 48.073 172.027 50.8117 169.815 53.129C167.655 55.4463 165.285 57.237 162.705 58.501C160.177 59.8177 157.596 60.476 154.963 60.476ZM151.092 47.204C152.514 46.73 154.12 46.0453 155.911 45.15C157.701 44.202 159.413 43.096 161.046 41.832C162.731 40.568 164.1 39.1723 165.154 37.645C166.26 36.1177 166.813 34.5113 166.813 32.826C166.813 32.2467 166.707 31.799 166.497 31.483C166.286 31.167 165.838 31.009 165.154 31.009C163.89 31.009 162.547 31.5093 161.125 32.51C159.703 33.458 158.333 34.722 157.017 36.302C155.7 37.882 154.515 39.62 153.462 41.516C152.408 43.412 151.618 45.308 151.092 47.204ZM203.53 63.873C200.633 63.873 198.447 63.3727 196.973 62.372C195.498 61.424 194.761 59.8177 194.761 57.553C194.761 57.395 194.892 57.316 195.156 57.316C195.524 57.316 196.183 57.4477 197.131 57.711C198.079 57.9743 199.896 58.106 202.582 58.106C207.111 58.106 211.298 57.6057 215.143 56.605C218.987 55.5517 222.305 54.1297 225.097 52.339C227.941 50.5483 230.126 48.547 231.654 46.335C233.234 44.0703 234.024 41.753 234.024 39.383C234.024 37.2237 233.418 35.4857 232.207 34.169C230.995 32.8523 229.389 31.8517 227.388 31.167C225.439 30.4823 223.306 30.0347 220.989 29.824C218.671 29.5607 216.38 29.429 214.116 29.429C213.115 29.429 212.088 29.4553 211.035 29.508C210.034 29.508 209.086 29.508 208.191 29.508C206.979 33.774 205.794 38.0663 204.636 42.385C203.477 46.7037 202.292 50.8907 201.081 54.946C199.764 54.946 198.658 54.5773 197.763 53.84C196.867 53.1027 196.42 52.2073 196.42 51.154C196.42 50.522 196.551 49.7847 196.815 48.942C197.078 48.0993 197.315 47.3357 197.526 46.651C197.842 45.5977 198.395 43.8333 199.185 41.358C199.975 38.8827 200.923 35.986 202.029 32.668C203.187 29.35 204.451 25.874 205.821 22.24C207.19 18.606 208.586 15.051 210.008 11.575C211.482 8.099 212.904 5.018 214.274 2.332C212.062 2.70066 210.192 3.22733 208.665 3.912C207.19 4.59666 206.031 5.22866 205.189 5.808C204.346 6.33467 203.74 6.598 203.372 6.598C203.108 6.598 202.766 6.49267 202.345 6.282C201.976 6.01867 201.634 5.729 201.318 5.413C201.002 5.04433 200.844 4.72833 200.844 4.465C203.477 3.359 206.216 2.35833 209.06 1.463C211.956 0.567665 215.459 0.119998 219.567 0.119998C221.305 0.119998 223.227 0.277997 225.334 0.593996C227.44 0.857329 229.442 1.43666 231.338 2.332C233.234 3.17466 234.787 4.43866 235.999 6.124C237.21 7.75666 237.816 9.94233 237.816 12.681C237.816 15.2617 237.263 17.4737 236.157 19.317C235.051 21.1077 233.602 22.6087 231.812 23.82C230.021 24.9787 228.072 25.9003 225.966 26.585C223.859 27.2697 221.779 27.77 219.725 28.086C223.622 28.2967 226.756 28.8497 229.126 29.745C231.548 30.6403 233.365 31.72 234.577 32.984C235.841 34.1953 236.683 35.4857 237.105 36.855C237.526 38.2243 237.737 39.541 237.737 40.805C237.737 43.8597 236.947 46.6247 235.367 49.1C233.787 51.5753 231.706 53.7347 229.126 55.578C226.545 57.4213 223.727 58.9487 220.673 60.16C217.618 61.424 214.59 62.3457 211.588 62.925C208.586 63.557 205.9 63.873 203.53 63.873ZM208.665 27.691C211.561 27.5857 214.432 27.2697 217.276 26.743C220.172 26.1637 222.806 25.2683 225.176 24.057C227.546 22.8457 229.442 21.2657 230.864 19.317C232.338 17.3683 233.076 14.9457 233.076 12.049C233.076 9.31033 232.417 7.20366 231.101 5.729C229.837 4.25433 228.178 3.22733 226.124 2.648C224.122 2.06866 221.989 1.779 219.725 1.779C219.461 1.779 219.198 1.779 218.935 1.779C218.724 1.779 218.487 1.80533 218.224 1.858C216.328 5.54467 214.59 9.6 213.01 14.024C211.482 18.448 210.034 23.0037 208.665 27.691ZM254.99 59.054C253.2 59.054 251.778 58.58 250.724 57.632C249.724 56.684 249.223 55.4463 249.223 53.919C249.223 52.339 249.592 50.68 250.329 48.942C251.067 47.204 251.778 45.4923 252.462 43.807C253.2 42.069 253.568 40.5153 253.568 39.146C253.568 37.4607 253.068 36.223 252.067 35.433C251.119 34.5903 250.145 33.8267 249.144 33.142C247.933 36.2493 246.669 39.1987 245.352 41.99C244.036 44.7813 242.956 46.888 242.113 48.31L241.402 46.967C242.14 45.5977 243.088 43.5963 244.246 40.963C245.458 38.3297 246.643 35.3277 247.801 31.957C247.275 31.4303 247.011 30.7983 247.011 30.061C247.011 28.481 247.459 27.1907 248.354 26.19C249.25 25.1893 249.908 24.689 250.329 24.689C250.909 24.689 251.225 24.9523 251.277 25.479C251.383 25.953 251.435 26.3217 251.435 26.585C251.435 26.8483 251.277 27.375 250.961 28.165C250.698 28.9023 250.566 29.35 250.566 29.508C250.566 30.2453 250.961 30.93 251.751 31.562C252.594 32.1413 253.542 32.826 254.595 33.616C255.649 34.3533 256.57 35.275 257.36 36.381C258.203 37.4343 258.624 38.8037 258.624 40.489C258.624 42.069 258.282 43.6753 257.597 45.308C256.965 46.9407 256.307 48.4943 255.622 49.969C254.99 51.4437 254.674 52.734 254.674 53.84C254.674 54.788 254.911 55.42 255.385 55.736C255.859 56.052 256.412 56.21 257.044 56.21C258.308 56.21 259.599 55.815 260.915 55.025C262.285 54.235 263.601 53.2343 264.865 52.023C266.129 50.8117 267.262 49.5477 268.262 48.231C269.263 46.8617 270 45.5977 270.474 44.439L271.501 45.229C270.501 47.441 269.131 49.6267 267.393 51.786C265.655 53.8927 263.707 55.6307 261.547 57C259.441 58.3693 257.255 59.054 254.99 59.054ZM303.548 60.871C300.335 60.871 297.939 59.8967 296.359 57.948C294.832 55.9993 294.068 53.6557 294.068 50.917C291.803 53.919 289.196 56.2627 286.247 57.948C283.298 59.6333 280.322 60.476 277.32 60.476C274.107 60.476 271.685 59.5807 270.052 57.79C268.472 56.052 267.682 53.8927 267.682 51.312C267.682 48.942 268.261 46.4403 269.42 43.807C270.631 41.1737 272.211 38.6983 274.16 36.381C276.161 34.0637 278.347 32.194 280.717 30.772C283.087 29.2973 285.431 28.56 287.748 28.56C288.959 28.56 290.065 28.876 291.066 29.508C292.119 30.14 292.646 31.4303 292.646 33.379C292.646 35.3803 292.04 37.2763 290.829 39.067C289.67 40.805 288.117 42.3587 286.168 43.728C284.272 45.0973 282.165 46.2297 279.848 47.125C277.583 47.9677 275.319 48.4943 273.054 48.705C272.949 49.2317 272.87 49.732 272.817 50.206C272.764 50.68 272.738 51.1277 272.738 51.549C272.738 52.6023 272.922 53.6557 273.291 54.709C273.66 55.7097 274.292 56.526 275.187 57.158C276.082 57.8427 277.346 58.185 278.979 58.185C281.77 58.185 284.535 57.2107 287.274 55.262C290.013 53.2607 292.409 50.8117 294.463 47.915C294.937 45.7557 295.78 43.5963 296.991 41.437C298.202 39.2777 299.651 37.329 301.336 35.591C303.074 33.8003 304.944 32.3783 306.945 31.325C308.946 30.219 310.974 29.666 313.028 29.666C314.239 29.666 315.345 29.982 316.346 30.614C317.399 31.246 317.926 32.5363 317.926 34.485C317.926 37.171 317.004 39.541 315.161 41.595C313.37 43.5963 311.053 45.2027 308.209 46.414C305.365 47.6253 302.442 48.389 299.44 48.705C299.335 49.2317 299.256 49.732 299.203 50.206C299.15 50.68 299.124 51.1277 299.124 51.549C299.124 52.6023 299.282 53.682 299.598 54.788C299.967 55.894 300.572 56.7893 301.415 57.474C302.31 58.2113 303.574 58.58 305.207 58.58C307.472 58.58 309.736 57.9217 312.001 56.605C314.266 55.2357 316.372 53.4713 318.321 51.312C320.27 49.1 321.902 46.73 323.219 44.202L324.167 44.913C322.745 48.073 320.902 50.8643 318.637 53.287C316.425 55.657 314.002 57.5003 311.369 58.817C308.788 60.1863 306.181 60.871 303.548 60.871ZM273.449 47.204C274.871 46.73 276.477 46.0453 278.268 45.15C280.059 44.202 281.77 43.096 283.403 41.832C285.088 40.568 286.458 39.1723 287.511 37.645C288.617 36.1177 289.17 34.5113 289.17 32.826C289.17 32.2467 289.065 31.799 288.854 31.483C288.643 31.167 288.196 31.009 287.511 31.009C286.247 31.009 284.904 31.5093 283.482 32.51C282.06 33.458 280.691 34.722 279.374 36.302C278.057 37.882 276.872 39.62 275.819 41.516C274.766 43.412 273.976 45.308 273.449 47.204ZM299.835 47.204C301.257 46.73 302.811 46.098 304.496 45.308C306.181 44.518 307.788 43.5963 309.315 42.543C310.842 41.437 312.106 40.1993 313.107 38.83C314.108 37.408 314.608 35.8543 314.608 34.169C314.608 33.5897 314.476 33.1157 314.213 32.747C313.95 32.3257 313.476 32.115 312.791 32.115C311.106 32.115 309.394 32.8523 307.656 34.327C305.971 35.8017 304.417 37.6977 302.995 40.015C301.626 42.2797 300.572 44.676 299.835 47.204ZM326.693 60.081C325.06 60.081 323.928 59.2647 323.296 57.632C322.664 56.052 322.348 53.9717 322.348 51.391C322.348 51.2857 322.374 50.4693 322.427 48.942C322.479 47.362 322.611 44.7287 322.822 41.042C322.927 39.62 323.085 38.6457 323.296 38.119C323.506 37.5923 324.191 37.329 325.35 37.329C326.245 37.329 326.798 37.5133 327.009 37.882C327.272 38.198 327.404 38.8563 327.404 39.857C327.404 41.595 327.272 43.649 327.009 46.019C326.798 48.3363 326.693 50.522 326.693 52.576C326.693 54.1033 326.824 55.2357 327.088 55.973C327.351 56.6577 327.825 57 328.51 57C329.458 57 330.511 56.4733 331.67 55.42C332.828 54.314 334.013 52.892 335.225 51.154C336.436 49.3633 337.568 47.4673 338.622 45.466C339.728 43.4647 340.702 41.5423 341.545 39.699C341.65 36.1177 342.019 33.7477 342.651 32.589C343.335 31.3777 344.178 30.772 345.179 30.772C346.179 30.772 346.89 31.1407 347.312 31.878C347.786 32.5627 348.023 33.1947 348.023 33.774C348.023 34.4587 347.786 35.1697 347.312 35.907C346.89 36.6443 346.443 37.645 345.969 38.909C345.495 40.173 345.258 41.99 345.258 44.36C345.258 45.2027 345.337 46.098 345.495 47.046C345.653 47.994 345.995 48.784 346.522 49.416C347.048 50.048 347.865 50.364 348.971 50.364C350.077 50.364 351.13 49.9427 352.131 49.1C353.184 48.2047 354.211 46.6773 355.212 44.518L356.239 45.308C355.08 47.9413 353.79 49.7057 352.368 50.601C350.998 51.4963 349.682 51.944 348.418 51.944C346.68 51.944 345.231 51.312 344.073 50.048C342.914 48.784 342.15 46.8617 341.782 44.281C340.518 46.8617 339.017 49.3633 337.279 51.786C335.593 54.156 333.829 56.131 331.986 57.711C330.142 59.291 328.378 60.081 326.693 60.081ZM362.261 60.476C359.048 60.476 356.625 59.5807 354.993 57.79C353.413 56.052 352.623 53.8927 352.623 51.312C352.623 48.942 353.202 46.4403 354.361 43.807C355.572 41.1737 357.152 38.6983 359.101 36.381C361.102 34.0637 363.288 32.194 365.658 30.772C368.028 29.2973 370.371 28.56 372.689 28.56C373.9 28.56 375.006 28.876 376.007 29.508C377.06 30.14 377.587 31.4303 377.587 33.379C377.587 35.3803 376.981 37.2763 375.77 39.067C374.611 40.805 373.057 42.3587 371.109 43.728C369.213 45.0973 367.106 46.2297 364.789 47.125C362.524 47.9677 360.259 48.4943 357.995 48.705C357.889 49.2317 357.81 49.732 357.758 50.206C357.705 50.68 357.679 51.1277 357.679 51.549C357.679 52.339 357.758 53.129 357.916 53.919C358.126 54.709 358.469 55.4463 358.943 56.131C359.417 56.763 360.049 57.2633 360.839 57.632C361.681 58.0007 362.708 58.185 363.92 58.185C366.184 58.185 368.423 57.553 370.635 56.289C372.847 54.9723 374.901 53.2607 376.797 51.154C378.693 49.0473 380.299 46.73 381.616 44.202L382.564 44.913C381.142 48.073 379.325 50.8117 377.113 53.129C374.953 55.4463 372.583 57.237 370.003 58.501C367.475 59.8177 364.894 60.476 362.261 60.476ZM358.39 47.204C359.812 46.73 361.418 46.0453 363.209 45.15C364.999 44.202 366.711 43.096 368.344 41.832C370.029 40.568 371.398 39.1723 372.452 37.645C373.558 36.1177 374.111 34.5113 374.111 32.826C374.111 32.2467 374.005 31.799 373.795 31.483C373.584 31.167 373.136 31.009 372.452 31.009C371.188 31.009 369.845 31.5093 368.423 32.51C367.001 33.458 365.631 34.722 364.315 36.302C362.998 37.882 361.813 39.62 360.76 41.516C359.706 43.412 358.916 45.308 358.39 47.204Z" fill="black"/>
</svg>
