<svg width="40" height="40" viewBox="0 0 40 40" fill="none" xmlns="http://www.w3.org/2000/svg">
<path d="M1.25 17.9167C1.25 10.0604 1.25 6.13125 3.69167 3.69167C6.13125 1.25 10.0604 1.25 17.9167 1.25H22.0833C29.9396 1.25 33.8687 1.25 36.3083 3.69167C38.75 6.13125 38.75 10.0604 38.75 17.9167V22.0833C38.75 29.9396 38.75 33.8687 36.3083 36.3083C33.8687 38.75 29.9396 38.75 22.0833 38.75H17.9167C10.0604 38.75 6.13125 38.75 3.69167 36.3083C1.25 33.8687 1.25 29.9396 1.25 22.0833V17.9167Z" stroke="white" stroke-width="2.08333"/>
<path d="M29.375 13.75C31.1009 13.75 32.5 12.3509 32.5 10.625C32.5 8.89911 31.1009 7.5 29.375 7.5C27.6491 7.5 26.25 8.89911 26.25 10.625C26.25 12.3509 27.6491 13.75 29.375 13.75Z" fill="white"/>
<path d="M20 26.25C23.4518 26.25 26.25 23.4518 26.25 20C26.25 16.5482 23.4518 13.75 20 13.75C16.5482 13.75 13.75 16.5482 13.75 20C13.75 23.4518 16.5482 26.25 20 26.25Z" stroke="white" stroke-width="2.08333"/>
</svg>
