<svg width="395" height="64" viewBox="0 0 395 64" fill="none" xmlns="http://www.w3.org/2000/svg">
<path d="M37.363 63.873C35.467 63.873 33.3603 63.478 31.043 62.688C28.7783 61.898 26.4347 60.9237 24.012 59.765C21.5893 58.659 19.193 57.5793 16.823 56.526C15.5063 58.0007 14.137 59.133 12.715 59.923C11.293 60.7657 9.73933 61.187 8.054 61.187C6.36867 61.187 4.94667 60.792 3.788 60.002C2.57667 59.212 1.68133 58.264 1.102 57.158C0.47 56.1047 0.154 55.1567 0.154 54.314C0.154 53.366 0.601667 52.5497 1.497 51.865C2.33967 51.1803 3.81433 50.838 5.921 50.838C7.29033 50.838 8.79133 50.996 10.424 51.312C12.1093 51.628 13.8473 52.023 15.638 52.497C16.902 50.285 18.0607 47.7043 19.114 44.755C20.22 41.8057 21.2997 38.672 22.353 35.354C23.4063 32.036 24.4597 28.718 25.513 25.4C23.0903 24.61 21.168 23.4513 19.746 21.924C18.3767 20.3967 17.692 18.7377 17.692 16.947C17.692 15.999 17.8763 15.051 18.245 14.103C18.6663 13.155 19.2457 12.365 19.983 11.733C20.7203 11.0483 21.5893 10.706 22.59 10.706C22.2213 11.2327 21.958 11.9963 21.8 12.997C21.642 13.9977 21.563 14.8667 21.563 15.604C21.563 17.6053 21.9843 19.2907 22.827 20.66C23.6697 21.9767 24.7493 23.0037 26.066 23.741C27.1193 20.581 28.199 17.6053 29.305 14.814C30.4637 11.97 31.7277 9.442 33.097 7.23C34.4663 5.018 35.9673 3.28 37.6 2.016C39.2327 0.751997 41.0497 0.119998 43.051 0.119998C44.1043 0.119998 45.2103 0.356998 46.369 0.830998C47.5803 1.305 48.6073 2.12133 49.45 3.28C50.2927 4.43866 50.714 6.07133 50.714 8.178C50.714 9.96866 50.3453 11.9173 49.608 14.024C48.8707 16.078 47.7383 18.053 46.211 19.949C44.6837 21.7923 42.735 23.3197 40.365 24.531C37.995 25.6897 35.2037 26.2953 31.991 26.348C31.9383 26.348 31.8067 26.348 31.596 26.348C31.438 26.348 31.0693 26.348 30.49 26.348C29.4367 29.5607 28.3043 32.826 27.093 36.144C25.9343 39.462 24.6967 42.622 23.38 45.624C22.0633 48.5733 20.6413 51.2067 19.114 53.524C21.5367 54.2613 23.9857 55.025 26.461 55.815C28.9363 56.5523 31.3327 57.158 33.65 57.632C35.9673 58.1587 38.1003 58.422 40.049 58.422C41.155 58.422 42.1557 58.3167 43.051 58.106C43.9463 57.8953 44.8153 57.5793 45.658 57.158C44.8153 59.5807 43.683 61.2923 42.261 62.293C40.8917 63.3463 39.259 63.873 37.363 63.873ZM7.738 58.896C8.89667 58.896 9.97633 58.58 10.977 57.948C12.0303 57.316 12.9783 56.4207 13.821 55.262C12.1883 54.5773 10.582 54.0243 9.002 53.603C7.47467 53.129 6.079 52.892 4.815 52.892C3.81433 52.892 3.12967 53.0237 2.761 53.287C2.39233 53.5503 2.208 53.919 2.208 54.393C2.208 55.2883 2.73467 56.2627 3.788 57.316C4.78867 58.3693 6.10533 58.896 7.738 58.896ZM30.964 24.847C33.334 24.847 35.467 24.1887 37.363 22.872C39.3117 21.5027 40.9443 19.8173 42.261 17.816C43.6303 15.762 44.6573 13.6817 45.342 11.575C46.0793 9.46833 46.448 7.625 46.448 6.045C46.448 4.51766 46.1583 3.49066 45.579 2.964C44.9997 2.38466 44.3413 2.095 43.604 2.095C41.9713 2.095 40.444 3.14833 39.022 5.255C37.6 7.36167 36.2307 10.153 34.914 13.629C33.65 17.0523 32.3333 20.7917 30.964 24.847ZM55.5139 59.37C53.7232 59.37 52.2749 58.58 51.1689 57C50.1155 55.3673 49.5889 53.4977 49.5889 51.391C49.5889 49.8637 49.8259 48.0993 50.2999 46.098C50.8265 44.0967 51.4585 42.1217 52.1959 40.173C52.9332 38.2243 53.6969 36.618 54.4869 35.354C55.2769 34.09 55.9615 33.458 56.5409 33.458C56.8042 33.458 57.2519 33.616 57.8839 33.932C58.5159 34.1953 59.0425 34.564 59.4639 35.038C58.8845 35.9333 58.1735 37.3027 57.3309 39.146C56.4882 40.9893 55.7509 42.9643 55.1189 45.071C54.4869 47.1777 54.1709 49.1263 54.1709 50.917C54.1709 51.3383 54.2235 51.9967 54.3289 52.892C54.4342 53.7347 54.6975 54.4983 55.1189 55.183C55.5402 55.8677 56.1722 56.21 57.0149 56.21C58.0155 56.21 59.0425 55.7097 60.0959 54.709C61.1492 53.6557 62.2025 52.3127 63.2559 50.68C64.3619 49.0473 65.4152 47.283 66.4159 45.387C67.4165 43.491 68.3382 41.674 69.1809 39.936C70.0762 38.198 70.8135 36.7497 71.3929 35.591C71.7089 35.6437 72.1565 35.749 72.7359 35.907C73.3679 36.065 73.9209 36.2757 74.3949 36.539C74.9215 36.8023 75.1849 37.171 75.1849 37.645C75.1849 37.8557 74.9215 38.5667 74.3949 39.778C73.8682 40.9367 73.2362 42.385 72.4989 44.123C71.8142 45.8083 71.2085 47.52 70.6819 49.258C70.1552 50.996 69.8919 52.5233 69.8919 53.84C69.8919 54.788 70.0762 55.5517 70.4449 56.131C70.8662 56.7103 71.5509 57 72.4989 57C73.6049 57 74.9479 56.4997 76.5279 55.499C78.1079 54.4983 79.7142 53.05 81.3469 51.154C82.9795 49.2053 84.4279 46.888 85.6919 44.202L86.7189 44.913C85.6129 47.757 84.1645 50.285 82.3739 52.497C80.5832 54.6563 78.6872 56.3417 76.6859 57.553C74.6845 58.7643 72.7359 59.37 70.8399 59.37C69.4705 59.37 68.3645 59.1067 67.5219 58.58C66.7319 58.0533 66.1525 57.3423 65.7839 56.447C65.4679 55.5517 65.3099 54.5773 65.3099 53.524C65.3099 52.892 65.3625 52.26 65.4679 51.628C65.5732 50.9433 65.7049 50.2587 65.8629 49.574C64.9149 51.312 63.8879 52.9447 62.7819 54.472C61.6759 55.9467 60.5172 57.1317 59.3059 58.027C58.0945 58.9223 56.8305 59.37 55.5139 59.37ZM107.692 60.002C106.217 60.002 104.953 59.5017 103.9 58.501C102.846 57.5003 102.004 56.2363 101.372 54.709C100.792 53.1817 100.345 51.628 100.029 50.048C99.7652 48.4153 99.6335 46.9933 99.6335 45.782C100.213 45.782 101.056 45.6503 102.162 45.387C103.268 45.071 104.4 44.6233 105.559 44.044C106.717 43.412 107.692 42.622 108.482 41.674C109.324 40.6733 109.746 39.5147 109.746 38.198C109.746 37.092 109.351 36.223 108.561 35.591C107.771 34.959 106.849 34.643 105.796 34.643C104.163 34.643 102.636 35.2223 101.214 36.381C99.7915 37.487 98.5012 38.9617 97.3425 40.805C96.2365 42.5957 95.2358 44.518 94.3405 46.572C93.4452 48.626 92.6815 50.5747 92.0495 52.418C91.4175 54.2613 90.8908 55.7887 90.4695 57C90.1535 57.948 89.7058 58.58 89.1265 58.896C88.5472 59.2647 87.9415 59.449 87.3095 59.449C86.4142 59.449 85.7558 59.0803 85.3345 58.343C84.9658 57.6057 84.7288 56.684 84.6235 55.578C84.5708 54.4193 84.5445 53.2343 84.5445 52.023C84.5445 49.2843 84.9922 46.1243 85.8875 42.543C86.7828 38.9617 87.9678 35.2487 89.4425 31.404C90.9698 27.5067 92.6288 23.741 94.4195 20.107C96.2102 16.473 98.0008 13.1813 99.7915 10.232C101.582 7.28267 103.241 4.939 104.769 3.201C106.296 1.463 107.534 0.593996 108.482 0.593996C109.219 0.593996 109.798 1.09433 110.22 2.095C110.694 3.09566 110.931 4.307 110.931 5.729C110.931 7.51966 110.536 9.54733 109.746 11.812C108.956 14.024 107.823 16.2623 106.349 18.527C104.927 20.7917 103.215 22.9247 101.214 24.926C99.2648 26.9273 97.1318 28.639 94.8145 30.061C93.0765 34.327 91.7598 38.4877 90.8645 42.543C90.0218 46.5457 89.6005 49.9163 89.6005 52.655C90.4432 50.5483 91.4438 48.231 92.6025 45.703C93.8138 43.175 95.1832 40.7523 96.7105 38.435C98.2378 36.1177 99.8968 34.2217 101.688 32.747C103.478 31.2723 105.348 30.535 107.297 30.535C109.245 30.535 110.904 31.2197 112.274 32.589C113.643 33.9583 114.328 35.6173 114.328 37.566C114.328 39.2513 113.88 40.6997 112.985 41.911C112.142 43.0697 111.089 44.0177 109.825 44.755C108.613 45.4397 107.376 45.9663 106.112 46.335C104.9 46.651 103.9 46.809 103.11 46.809C103.162 47.2303 103.32 47.994 103.584 49.1C103.847 50.206 104.216 51.3647 104.69 52.576C105.216 53.7873 105.848 54.8407 106.586 55.736C107.323 56.5787 108.218 57 109.272 57C110.799 57 112.247 56.4207 113.617 55.262C114.986 54.1033 116.276 52.576 117.488 50.68C118.752 48.7313 119.91 46.5457 120.964 44.123L121.754 44.913C121.016 47.4937 119.884 49.9427 118.357 52.26C116.829 54.5247 115.118 56.368 113.222 57.79C111.378 59.2647 109.535 60.002 107.692 60.002ZM96.1575 26.901C98.5802 24.9523 100.687 22.7403 102.478 20.265C104.321 17.7897 105.743 15.4197 106.744 13.155C107.744 10.8377 108.245 9.02066 108.245 7.704C108.245 7.44067 108.218 7.25633 108.166 7.151C108.166 7.04566 108.113 6.993 108.008 6.993C107.481 6.993 106.559 7.91466 105.243 9.758C103.979 11.6013 102.53 14.0503 100.898 17.105C99.2648 20.107 97.6848 23.3723 96.1575 26.901ZM128.017 60.476C124.805 60.476 122.382 59.5807 120.749 57.79C119.169 56.052 118.379 53.8927 118.379 51.312C118.379 48.942 118.959 46.4403 120.117 43.807C121.329 41.1737 122.909 38.6983 124.857 36.381C126.859 34.0637 129.044 32.194 131.414 30.772C133.784 29.2973 136.128 28.56 138.445 28.56C139.657 28.56 140.763 28.876 141.763 29.508C142.817 30.14 143.343 31.4303 143.343 33.379C143.343 35.3803 142.738 37.2763 141.526 39.067C140.368 40.805 138.814 42.3587 136.865 43.728C134.969 45.0973 132.863 46.2297 130.545 47.125C128.281 47.9677 126.016 48.4943 123.751 48.705C123.646 49.2317 123.567 49.732 123.514 50.206C123.462 50.68 123.435 51.1277 123.435 51.549C123.435 52.339 123.514 53.129 123.672 53.919C123.883 54.709 124.225 55.4463 124.699 56.131C125.173 56.763 125.805 57.2633 126.595 57.632C127.438 58.0007 128.465 58.185 129.676 58.185C131.941 58.185 134.179 57.553 136.391 56.289C138.603 54.9723 140.657 53.2607 142.553 51.154C144.449 49.0473 146.056 46.73 147.372 44.202L148.32 44.913C146.898 48.073 145.081 50.8117 142.869 53.129C140.71 55.4463 138.34 57.237 135.759 58.501C133.231 59.8177 130.651 60.476 128.017 60.476ZM124.146 47.204C125.568 46.73 127.175 46.0453 128.965 45.15C130.756 44.202 132.468 43.096 134.1 41.832C135.786 40.568 137.155 39.1723 138.208 37.645C139.314 36.1177 139.867 34.5113 139.867 32.826C139.867 32.2467 139.762 31.799 139.551 31.483C139.341 31.167 138.893 31.009 138.208 31.009C136.944 31.009 135.601 31.5093 134.179 32.51C132.757 33.458 131.388 34.722 130.071 36.302C128.755 37.882 127.57 39.62 126.516 41.516C125.463 43.412 124.673 45.308 124.146 47.204ZM183.615 63.873C179.876 63.873 176.848 62.925 174.53 61.029C172.266 59.1857 170.607 56.7893 169.553 53.84C168.553 50.8907 168.052 47.8097 168.052 44.597C168.052 40.4363 168.684 36.2493 169.948 32.036C171.212 27.8227 172.924 23.82 175.083 20.028C177.295 16.1833 179.797 12.7863 182.588 9.837C185.38 6.835 188.303 4.49133 191.357 2.806C194.465 1.068 197.519 0.198997 200.521 0.198997C202.681 0.198997 204.419 0.725663 205.735 1.779C207.105 2.77966 207.789 4.51767 207.789 6.993C207.789 8.52033 207.526 10.2583 206.999 12.207C206.473 14.103 205.762 15.9463 204.866 17.737C203.971 19.475 202.97 20.9233 201.864 22.082C200.811 23.2407 199.731 23.82 198.625 23.82C198.204 23.82 197.756 23.6883 197.282 23.425C196.861 23.1617 196.492 22.6877 196.176 22.003C196.966 21.1077 197.835 20.0017 198.783 18.685C199.784 17.3157 200.732 15.8937 201.627 14.419C202.523 12.8917 203.234 11.417 203.76 9.995C204.34 8.52033 204.629 7.23 204.629 6.124C204.629 5.07066 204.313 4.228 203.681 3.596C203.102 2.91133 202.128 2.569 200.758 2.569C198.494 2.569 196.124 3.49066 193.648 5.334C191.226 7.17733 188.856 9.65267 186.538 12.76C184.274 15.8147 182.22 19.238 180.376 23.03C178.533 26.822 177.058 30.693 175.952 34.643C174.899 38.593 174.372 42.3587 174.372 45.94C174.372 48.5207 174.741 50.996 175.478 53.366C176.216 55.6833 177.401 57.553 179.033 58.975C180.719 60.4497 182.878 61.187 185.511 61.187C188.303 61.187 191.068 60.397 193.806 58.817C196.598 57.237 199.152 55.1567 201.469 52.576C203.787 49.9953 205.63 47.204 206.999 44.202L208.105 44.992C206.367 48.4153 204.261 51.5753 201.785 54.472C199.31 57.316 196.545 59.5807 193.49 61.266C190.436 63.004 187.144 63.873 183.615 63.873ZM219.019 59.054C217.228 59.054 215.806 58.58 214.753 57.632C213.752 56.684 213.252 55.4463 213.252 53.919C213.252 52.339 213.62 50.68 214.358 48.942C215.095 47.204 215.806 45.4923 216.491 43.807C217.228 42.069 217.597 40.5153 217.597 39.146C217.597 37.4607 217.096 36.223 216.096 35.433C215.148 34.5903 214.173 33.8267 213.173 33.142C211.961 36.2493 210.697 39.1987 209.381 41.99C208.064 44.7813 206.984 46.888 206.142 48.31L205.431 46.967C206.168 45.5977 207.116 43.5963 208.275 40.963C209.486 38.3297 210.671 35.3277 211.83 31.957C211.303 31.4303 211.04 30.7983 211.04 30.061C211.04 28.481 211.487 27.1907 212.383 26.19C213.278 25.1893 213.936 24.689 214.358 24.689C214.937 24.689 215.253 24.9523 215.306 25.479C215.411 25.953 215.464 26.3217 215.464 26.585C215.464 26.8483 215.306 27.375 214.99 28.165C214.726 28.9023 214.595 29.35 214.595 29.508C214.595 30.2453 214.99 30.93 215.78 31.562C216.622 32.1413 217.57 32.826 218.624 33.616C219.677 34.3533 220.599 35.275 221.389 36.381C222.231 37.4343 222.653 38.8037 222.653 40.489C222.653 42.069 222.31 43.6753 221.626 45.308C220.994 46.9407 220.335 48.4943 219.651 49.969C219.019 51.4437 218.703 52.734 218.703 53.84C218.703 54.788 218.94 55.42 219.414 55.736C219.888 56.052 220.441 56.21 221.073 56.21C222.337 56.21 223.627 55.815 224.944 55.025C226.313 54.235 227.63 53.2343 228.894 52.023C230.158 50.8117 231.29 49.5477 232.291 48.231C233.291 46.8617 234.029 45.5977 234.503 44.439L235.53 45.229C234.529 47.441 233.16 49.6267 231.422 51.786C229.684 53.8927 227.735 55.6307 225.576 57C223.469 58.3693 221.283 59.054 219.019 59.054ZM238.504 59.054C236.45 59.054 234.923 58.3957 233.922 57.079C232.922 55.815 232.421 54.2613 232.421 52.418C232.421 51.2067 232.632 49.6793 233.053 47.836C233.527 45.9927 234.133 44.0703 234.87 42.069C235.608 40.015 236.45 38.0927 237.398 36.302C238.399 34.5113 239.452 33.063 240.558 31.957C241.664 30.7983 242.744 30.219 243.797 30.219C244.271 30.219 244.666 30.377 244.982 30.693C245.351 30.9563 245.535 31.3777 245.535 31.957C245.535 32.589 245.114 33.616 244.271 35.038C243.481 36.46 242.533 38.0927 241.427 39.936C240.321 41.7793 239.347 43.728 238.504 45.782C237.714 47.7833 237.319 49.7057 237.319 51.549C237.319 53.445 237.635 54.709 238.267 55.341C238.899 55.973 239.874 56.289 241.19 56.289C242.981 56.289 244.877 55.3937 246.878 53.603C248.932 51.8123 251.092 48.6787 253.356 44.202L254.067 44.992C252.54 49.5213 250.328 52.9973 247.431 55.42C244.587 57.8427 241.612 59.054 238.504 59.054ZM247.984 22.872C247.142 22.872 246.378 22.6613 245.693 22.24C245.061 21.8187 244.745 21.1603 244.745 20.265C244.745 19.159 245.377 18.211 246.641 17.421C247.958 16.5783 249.248 16.157 250.512 16.157C251.302 16.157 251.934 16.3413 252.408 16.71C252.882 17.0787 253.119 17.7107 253.119 18.606C253.119 19.6067 252.566 20.581 251.46 21.529C250.407 22.4243 249.248 22.872 247.984 22.872ZM260.167 61.029C257.692 61.029 255.717 60.476 254.242 59.37C252.82 58.3167 251.819 57 251.24 55.42C250.608 53.84 250.292 52.26 250.292 50.68C250.292 49.1 250.503 47.8887 250.924 47.046C251.345 46.2033 251.846 45.5713 252.425 45.15C253.057 44.7287 253.636 44.4127 254.163 44.202C254.742 43.9913 255.137 43.7807 255.348 43.57C256.928 41.832 258.376 40.015 259.693 38.119C261.01 36.223 262.168 34.2217 263.169 32.115V31.167C263.169 29.2183 263.485 27.849 264.117 27.059C264.802 26.2163 265.513 25.795 266.25 25.795C266.671 25.795 266.987 25.9003 267.198 26.111C267.409 26.3217 267.514 26.5587 267.514 26.822C267.514 27.0853 267.435 27.5067 267.277 28.086C267.119 28.6653 267.04 29.4027 267.04 30.298C267.04 32.036 267.382 33.932 268.067 35.986C268.752 37.9873 269.436 40.1203 270.121 42.385C270.806 44.597 271.148 46.9143 271.148 49.337C271.148 50.0217 271.095 50.7063 270.99 51.391C270.937 52.023 270.832 52.6287 270.674 53.208C272.517 52.892 274.255 52.0757 275.888 50.759C277.521 49.3897 279.101 47.2303 280.628 44.281L281.339 45.071C280.338 47.9677 278.837 50.1797 276.836 51.707C274.835 53.1817 272.649 54.1033 270.279 54.472C269.436 56.7367 268.093 58.3957 266.25 59.449C264.459 60.5023 262.432 61.029 260.167 61.029ZM260.325 58.264C260.957 58.264 261.8 58.0533 262.853 57.632C263.906 57.2107 264.723 56.131 265.302 54.393C263.09 53.9717 261.115 53.1027 259.377 51.786C257.692 50.4693 256.428 49.1527 255.585 47.836C254.426 47.8887 253.847 48.8103 253.847 50.601C253.847 52.497 254.4 54.2613 255.506 55.894C256.665 57.474 258.271 58.264 260.325 58.264ZM265.697 53.129C265.802 52.6023 265.881 52.0493 265.934 51.47C265.987 50.8907 266.013 50.206 266.013 49.416C266.013 46.9407 265.697 44.4917 265.065 42.069C264.486 39.5937 263.985 37.2763 263.564 35.117C262.353 37.1183 261.062 39.0407 259.693 40.884C258.376 42.6747 257.112 44.1757 255.901 45.387C256.691 47.0723 257.902 48.6523 259.535 50.127C261.22 51.6017 263.274 52.6023 265.697 53.129ZM285.82 60.634C283.556 60.634 281.818 59.9757 280.606 58.659C279.395 57.3423 278.789 55.3937 278.789 52.813C278.789 50.4957 279.211 47.6517 280.053 44.281C280.949 40.8577 282.055 37.3553 283.371 33.774C282.845 33.6687 282.344 33.5897 281.87 33.537C281.396 33.4317 280.949 33.3 280.527 33.142V31.72C280.949 31.7727 281.449 31.8253 282.028 31.878C282.608 31.9307 283.266 31.9833 284.003 32.036C285.109 29.192 286.294 26.4533 287.558 23.82C288.822 21.134 290.06 18.764 291.271 16.71C292.535 14.6033 293.72 12.9443 294.826 11.733C295.985 10.469 296.959 9.837 297.749 9.837C298.171 9.837 298.539 9.995 298.855 10.311C299.224 10.5743 299.408 10.9957 299.408 11.575C299.408 12.4703 298.855 13.945 297.749 15.999C296.643 18.0003 295.274 20.3967 293.641 23.188C292.009 25.9793 290.429 29.0077 288.901 32.273C289.375 32.273 289.849 32.273 290.323 32.273C290.85 32.273 291.35 32.273 291.824 32.273C293.562 32.273 295.379 32.2467 297.275 32.194C299.224 32.1413 301.173 32.0097 303.121 31.799V33.221C300.225 33.537 297.618 33.774 295.3 33.932C293.036 34.09 291.008 34.169 289.217 34.169C289.007 34.169 288.796 34.169 288.585 34.169C288.427 34.169 288.243 34.169 288.032 34.169C286.821 36.9603 285.794 39.8307 284.951 42.78C284.109 45.7293 283.687 48.5997 283.687 51.391C283.687 53.6557 284.03 55.2883 284.714 56.289C285.399 57.237 286.531 57.711 288.111 57.711C290.85 57.711 293.536 56.4997 296.169 54.077C298.803 51.6543 301.12 48.3627 303.121 44.202L304.148 44.992C302.884 47.9413 301.278 50.601 299.329 52.971C297.433 55.341 295.327 57.2107 293.009 58.58C290.692 59.9493 288.296 60.634 285.82 60.634ZM307.321 59.054C305.267 59.054 303.739 58.3957 302.739 57.079C301.738 55.815 301.238 54.2613 301.238 52.418C301.238 51.2067 301.448 49.6793 301.87 47.836C302.344 45.9927 302.949 44.0703 303.687 42.069C304.424 40.015 305.267 38.0927 306.215 36.302C307.215 34.5113 308.269 33.063 309.375 31.957C310.481 30.7983 311.56 30.219 312.614 30.219C313.088 30.219 313.483 30.377 313.799 30.693C314.167 30.9563 314.352 31.3777 314.352 31.957C314.352 32.589 313.93 33.616 313.088 35.038C312.298 36.46 311.35 38.0927 310.244 39.936C309.138 41.7793 308.163 43.728 307.321 45.782C306.531 47.7833 306.136 49.7057 306.136 51.549C306.136 53.445 306.452 54.709 307.084 55.341C307.716 55.973 308.69 56.289 310.007 56.289C311.797 56.289 313.693 55.3937 315.695 53.603C317.749 51.8123 319.908 48.6787 322.173 44.202L322.884 44.992C321.356 49.5213 319.144 52.9973 316.248 55.42C313.404 57.8427 310.428 59.054 307.321 59.054ZM316.801 22.872C315.958 22.872 315.194 22.6613 314.51 22.24C313.878 21.8187 313.562 21.1603 313.562 20.265C313.562 19.159 314.194 18.211 315.458 17.421C316.774 16.5783 318.065 16.157 319.329 16.157C320.119 16.157 320.751 16.3413 321.225 16.71C321.699 17.0787 321.936 17.7107 321.936 18.606C321.936 19.6067 321.383 20.581 320.277 21.529C319.223 22.4243 318.065 22.872 316.801 22.872ZM346.205 58.58C344.362 58.58 342.966 58.106 342.018 57.158C341.123 56.21 340.675 54.9987 340.675 53.524C340.675 52.418 340.86 51.2593 341.228 50.048C341.65 48.8367 342.045 47.599 342.413 46.335C342.782 45.0183 342.966 43.7543 342.966 42.543C342.966 41.0683 342.65 40.0677 342.018 39.541C341.439 38.9617 340.702 38.672 339.806 38.672C338.174 38.672 336.515 39.3567 334.829 40.726C333.144 42.0427 331.511 43.7543 329.931 45.861C328.351 47.915 326.877 50.048 325.507 52.26C324.138 54.472 322.927 56.447 321.873 58.185C321.031 58.185 320.241 58.027 319.503 57.711C318.713 57.4477 318.108 57.0263 317.686 56.447C317.686 56.1837 317.976 55.3673 318.555 53.998C319.082 52.6287 319.714 50.9433 320.451 48.942C321.189 46.9407 321.847 44.8867 322.426 42.78C323.006 40.6733 323.295 38.751 323.295 37.013C323.611 36.6443 324.112 36.2757 324.796 35.907C325.481 35.5383 326.192 35.354 326.929 35.354C328.351 35.354 329.062 36.0387 329.062 37.408C329.062 38.2507 328.825 39.6727 328.351 41.674C327.877 43.6227 327.272 45.6767 326.534 47.836C327.956 45.6767 329.536 43.5437 331.274 41.437C333.065 39.2777 334.961 37.487 336.962 36.065C338.964 34.643 340.965 33.932 342.966 33.932C345.02 33.932 346.495 34.6693 347.39 36.144C348.338 37.6187 348.812 39.2513 348.812 41.042C348.812 42.6747 348.549 44.202 348.022 45.624C347.496 46.9933 346.943 48.3363 346.363 49.653C345.837 50.917 345.573 52.2073 345.573 53.524C345.573 54.63 345.784 55.42 346.205 55.894C346.679 56.3153 347.259 56.526 347.943 56.526C349.26 56.526 350.577 55.9203 351.893 54.709C353.21 53.445 354.474 51.865 355.685 49.969C356.949 48.073 358.055 46.1507 359.003 44.202L359.872 45.229C358.766 47.8097 357.529 50.1007 356.159 52.102C354.79 54.1033 353.289 55.6833 351.656 56.842C350.024 58.0007 348.207 58.58 346.205 58.58ZM361.28 60.713C359.648 60.713 358.278 60.16 357.172 59.054C356.014 58.0007 355.434 56.368 355.434 54.156C355.434 52.26 355.856 50.2323 356.698 48.073C357.541 45.861 358.7 43.7017 360.174 41.595C361.649 39.4357 363.308 37.487 365.151 35.749C367.047 33.9583 369.022 32.5363 371.076 31.483C373.183 30.4297 375.263 29.903 377.317 29.903C379.371 29.903 381.083 30.456 382.452 31.562C383.822 32.6153 384.506 34.0373 384.506 35.828C384.506 37.1447 384.138 38.04 383.4 38.514C382.716 38.988 381.794 39.225 380.635 39.225C380.741 38.8037 380.82 38.356 380.872 37.882C380.978 37.3553 381.03 36.8813 381.03 36.46C381.03 35.2487 380.741 34.2217 380.161 33.379C379.582 32.4837 378.581 32.036 377.159 32.036C375.685 32.036 374.184 32.5627 372.656 33.616C371.129 34.6167 369.654 35.986 368.232 37.724C366.81 39.4093 365.546 41.2527 364.44 43.254C363.334 45.2553 362.465 47.2303 361.833 49.179C361.201 51.1277 360.885 52.8657 360.885 54.393C360.885 56.447 361.596 57.474 363.018 57.474C364.23 57.474 365.546 56.921 366.968 55.815C368.39 54.6563 369.839 53.208 371.313 51.47C372.841 49.6793 374.289 47.836 375.658 45.94C377.028 44.044 378.239 42.306 379.292 40.726C379.503 40.41 379.635 40.252 379.687 40.252C380.003 40.3047 380.398 40.41 380.872 40.568C381.399 40.726 381.847 40.9367 382.215 41.2C382.584 41.4633 382.768 41.8057 382.768 42.227C382.768 42.701 382.531 43.3593 382.057 44.202C381.583 44.992 381.057 45.9137 380.477 46.967C379.898 48.0203 379.371 49.1 378.897 50.206C378.423 51.2593 378.186 52.26 378.186 53.208C378.186 53.998 378.397 54.788 378.818 55.578C379.24 56.3153 379.924 56.684 380.872 56.684C382.294 56.684 384.164 55.657 386.481 53.603C388.799 51.4963 391.142 48.3627 393.512 44.202L394.302 44.992C393.196 47.836 391.774 50.3377 390.036 52.497C388.298 54.6563 386.429 56.3417 384.427 57.553C382.479 58.7643 380.556 59.37 378.66 59.37C376.712 59.37 375.263 58.7907 374.315 57.632C373.42 56.4733 372.972 55.2093 372.972 53.84C372.972 53.524 372.999 53.1817 373.051 52.813C373.104 52.3917 373.157 51.9703 373.209 51.549C370.945 54.6037 368.864 56.8947 366.968 58.422C365.125 59.9493 363.229 60.713 361.28 60.713Z" fill="black"/>
</svg>
