<svg width="178" height="44" viewBox="0 0 178 44" fill="none" xmlns="http://www.w3.org/2000/svg">
<g filter="url(#filter0_d_4_63)">
<rect x="1" width="170" height="36" rx="10" fill="url(#paint0_linear_4_63)" shape-rendering="crispEdges"/>
</g>
<path d="M72.5 21.7734V23H66.8125V21.7734H72.5ZM67.1094 11.625V23H65.6016V11.625H67.1094ZM73.625 18.8672V18.6875C73.625 18.0781 73.7135 17.513 73.8906 16.9922C74.0677 16.4661 74.3229 16.0104 74.6562 15.625C74.9896 15.2344 75.3932 14.9323 75.8672 14.7188C76.3411 14.5 76.8724 14.3906 77.4609 14.3906C78.0547 14.3906 78.5885 14.5 79.0625 14.7188C79.5417 14.9323 79.9479 15.2344 80.2812 15.625C80.6198 16.0104 80.8776 16.4661 81.0547 16.9922C81.2318 17.513 81.3203 18.0781 81.3203 18.6875V18.8672C81.3203 19.4766 81.2318 20.0417 81.0547 20.5625C80.8776 21.0833 80.6198 21.5391 80.2812 21.9297C79.9479 22.3151 79.5443 22.6172 79.0703 22.8359C78.6016 23.0495 78.0703 23.1562 77.4766 23.1562C76.8828 23.1562 76.349 23.0495 75.875 22.8359C75.401 22.6172 74.9948 22.3151 74.6562 21.9297C74.3229 21.5391 74.0677 21.0833 73.8906 20.5625C73.7135 20.0417 73.625 19.4766 73.625 18.8672ZM75.0703 18.6875V18.8672C75.0703 19.2891 75.1198 19.6875 75.2188 20.0625C75.3177 20.4323 75.4661 20.7604 75.6641 21.0469C75.8672 21.3333 76.1198 21.5599 76.4219 21.7266C76.724 21.888 77.0755 21.9688 77.4766 21.9688C77.8724 21.9688 78.2188 21.888 78.5156 21.7266C78.8177 21.5599 79.0677 21.3333 79.2656 21.0469C79.4635 20.7604 79.612 20.4323 79.7109 20.0625C79.8151 19.6875 79.8672 19.2891 79.8672 18.8672V18.6875C79.8672 18.2708 79.8151 17.8776 79.7109 17.5078C79.612 17.1328 79.4609 16.8021 79.2578 16.5156C79.0599 16.224 78.8099 15.9948 78.5078 15.8281C78.2109 15.6615 77.862 15.5781 77.4609 15.5781C77.0651 15.5781 76.7161 15.6615 76.4141 15.8281C76.1172 15.9948 75.8672 16.224 75.6641 16.5156C75.4661 16.8021 75.3177 17.1328 75.2188 17.5078C75.1198 17.8776 75.0703 18.2708 75.0703 18.6875ZM88.6094 14.5469H89.9219V22.8203C89.9219 23.5651 89.7708 24.2005 89.4688 24.7266C89.1667 25.2526 88.7448 25.651 88.2031 25.9219C87.6667 26.1979 87.0469 26.3359 86.3438 26.3359C86.0521 26.3359 85.7083 26.2891 85.3125 26.1953C84.9219 26.1068 84.5365 25.9531 84.1562 25.7344C83.7812 25.5208 83.4661 25.2318 83.2109 24.8672L83.9688 24.0078C84.3229 24.4349 84.6927 24.7318 85.0781 24.8984C85.4688 25.0651 85.8542 25.1484 86.2344 25.1484C86.6927 25.1484 87.0885 25.0625 87.4219 24.8906C87.7552 24.7188 88.013 24.4635 88.1953 24.125C88.3828 23.7917 88.4766 23.3802 88.4766 22.8906V16.4062L88.6094 14.5469ZM82.7891 18.8672V18.7031C82.7891 18.0573 82.8646 17.4714 83.0156 16.9453C83.1719 16.4141 83.3932 15.9583 83.6797 15.5781C83.9714 15.1979 84.3229 14.9062 84.7344 14.7031C85.1458 14.4948 85.6094 14.3906 86.125 14.3906C86.6562 14.3906 87.1198 14.4844 87.5156 14.6719C87.9167 14.8542 88.2552 15.1224 88.5312 15.4766C88.8125 15.8255 89.0339 16.2474 89.1953 16.7422C89.3568 17.237 89.4688 17.7969 89.5312 18.4219V19.1406C89.474 19.7604 89.362 20.3177 89.1953 20.8125C89.0339 21.3073 88.8125 21.7292 88.5312 22.0781C88.2552 22.4271 87.9167 22.6953 87.5156 22.8828C87.1146 23.0651 86.6458 23.1562 86.1094 23.1562C85.6042 23.1562 85.1458 23.0495 84.7344 22.8359C84.3281 22.6224 83.9792 22.3229 83.6875 21.9375C83.3958 21.5521 83.1719 21.099 83.0156 20.5781C82.8646 20.0521 82.7891 19.4818 82.7891 18.8672ZM84.2344 18.7031V18.8672C84.2344 19.2891 84.276 19.6849 84.3594 20.0547C84.4479 20.4245 84.5807 20.75 84.7578 21.0312C84.9401 21.3125 85.1719 21.5339 85.4531 21.6953C85.7344 21.8516 86.0703 21.9297 86.4609 21.9297C86.9401 21.9297 87.3359 21.8281 87.6484 21.625C87.9609 21.4219 88.2083 21.1536 88.3906 20.8203C88.5781 20.487 88.724 20.125 88.8281 19.7344V17.8516C88.7708 17.5651 88.6823 17.2891 88.5625 17.0234C88.4479 16.7526 88.2969 16.513 88.1094 16.3047C87.9271 16.0911 87.7005 15.9219 87.4297 15.7969C87.1589 15.6719 86.8411 15.6094 86.4766 15.6094C86.0807 15.6094 85.7396 15.6927 85.4531 15.8594C85.1719 16.0208 84.9401 16.2448 84.7578 16.5312C84.5807 16.8125 84.4479 17.1406 84.3594 17.5156C84.276 17.8854 84.2344 18.2812 84.2344 18.7031ZM97.6562 14.5469V23H96.2031V14.5469H97.6562ZM96.0938 12.3047C96.0938 12.0703 96.1641 11.8724 96.3047 11.7109C96.4505 11.5495 96.6641 11.4688 96.9453 11.4688C97.2214 11.4688 97.4323 11.5495 97.5781 11.7109C97.7292 11.8724 97.8047 12.0703 97.8047 12.3047C97.8047 12.5286 97.7292 12.7214 97.5781 12.8828C97.4323 13.0391 97.2214 13.1172 96.9453 13.1172C96.6641 13.1172 96.4505 13.0391 96.3047 12.8828C96.1641 12.7214 96.0938 12.5286 96.0938 12.3047ZM101.422 16.3516V23H99.9766V14.5469H101.344L101.422 16.3516ZM101.078 18.4531L100.477 18.4297C100.482 17.8516 100.568 17.3177 100.734 16.8281C100.901 16.3333 101.135 15.9036 101.438 15.5391C101.74 15.1745 102.099 14.8932 102.516 14.6953C102.938 14.4922 103.404 14.3906 103.914 14.3906C104.331 14.3906 104.706 14.4479 105.039 14.5625C105.372 14.6719 105.656 14.849 105.891 15.0938C106.13 15.3385 106.312 15.6562 106.438 16.0469C106.562 16.4323 106.625 16.9036 106.625 17.4609V23H105.172V17.4453C105.172 17.0026 105.107 16.6484 104.977 16.3828C104.846 16.112 104.656 15.9167 104.406 15.7969C104.156 15.6719 103.849 15.6094 103.484 15.6094C103.125 15.6094 102.797 15.6849 102.5 15.8359C102.208 15.987 101.956 16.1953 101.742 16.4609C101.534 16.7266 101.37 17.0312 101.25 17.375C101.135 17.7135 101.078 18.0729 101.078 18.4531Z" fill="black"/>
<defs>
<filter id="filter0_d_4_63" x="0" y="0" width="178" height="44" filterUnits="userSpaceOnUse" color-interpolation-filters="sRGB">
<feFlood flood-opacity="0" result="BackgroundImageFix"/>
<feColorMatrix in="SourceAlpha" type="matrix" values="0 0 0 0 0 0 0 0 0 0 0 0 0 0 0 0 0 0 127 0" result="hardAlpha"/>
<feOffset dx="3" dy="4"/>
<feGaussianBlur stdDeviation="2"/>
<feComposite in2="hardAlpha" operator="out"/>
<feColorMatrix type="matrix" values="0 0 0 0 0 0 0 0 0 0 0 0 0 0 0 0 0 0 0.25 0"/>
<feBlend mode="normal" in2="BackgroundImageFix" result="effect1_dropShadow_4_63"/>
<feBlend mode="normal" in="SourceGraphic" in2="effect1_dropShadow_4_63" result="shape"/>
</filter>
<linearGradient id="paint0_linear_4_63" x1="0.999999" y1="18" x2="258.5" y2="18" gradientUnits="userSpaceOnUse">
<stop stop-color="#439AFF"/>
<stop offset="1" stop-color="#2110E1" stop-opacity="0"/>
</linearGradient>
</defs>
</svg>
