<svg width="42" height="42" viewBox="0 0 42 42" fill="none" xmlns="http://www.w3.org/2000/svg">
<path d="M30.0832 25.1665C30.2498 23.7915 30.3748 22.4165 30.3748 20.9998C30.3748 19.5832 30.2498 18.2082 30.0832 16.8332H37.1248C37.4582 18.1665 37.6665 19.5623 37.6665 20.9998C37.6665 22.4373 37.4582 23.8332 37.1248 25.1665M26.3957 36.7498C27.6457 34.4373 28.604 31.9373 29.2707 29.3332H35.4165C33.3981 32.8087 30.1959 35.4415 26.3957 36.7498ZM25.8748 25.1665H16.1248C15.9165 23.7915 15.7915 22.4165 15.7915 20.9998C15.7915 19.5832 15.9165 18.1873 16.1248 16.8332H25.8748C26.0623 18.1873 26.2082 19.5832 26.2082 20.9998C26.2082 22.4165 26.0623 23.7915 25.8748 25.1665ZM20.9998 37.5832C19.2707 35.0832 17.8748 32.3123 17.0207 29.3332H24.979C24.1248 32.3123 22.729 35.0832 20.9998 37.5832ZM12.6665 12.6665H6.58317C8.58079 9.18153 11.7807 6.5446 15.5832 5.24984C14.3332 7.56234 13.3957 10.0623 12.6665 12.6665ZM6.58317 29.3332H12.6665C13.3957 31.9373 14.3332 34.4373 15.5832 36.7498C11.7886 35.4408 8.59327 32.8076 6.58317 29.3332ZM4.87484 25.1665C4.5415 23.8332 4.33317 22.4373 4.33317 20.9998C4.33317 19.5623 4.5415 18.1665 4.87484 16.8332H11.9165C11.7498 18.2082 11.6248 19.5832 11.6248 20.9998C11.6248 22.4165 11.7498 23.7915 11.9165 25.1665M20.9998 4.39567C22.729 6.89567 24.1248 9.68734 24.979 12.6665H17.0207C17.8748 9.68734 19.2707 6.89567 20.9998 4.39567ZM35.4165 12.6665H29.2707C28.6186 10.0862 27.6531 7.59545 26.3957 5.24984C30.229 6.56234 33.4165 9.20817 35.4165 12.6665ZM20.9998 0.166504C9.479 0.166504 0.166504 9.5415 0.166504 20.9998C0.166504 26.5252 2.36144 31.8242 6.26845 35.7312C8.203 37.6658 10.4996 39.2004 13.0273 40.2473C15.5549 41.2943 18.264 41.8332 20.9998 41.8332C26.5252 41.8332 31.8242 39.6382 35.7312 35.7312C39.6382 31.8242 41.8332 26.5252 41.8332 20.9998C41.8332 18.264 41.2943 15.5549 40.2473 13.0273C39.2004 10.4996 37.6658 8.203 35.7312 6.26845C33.7967 4.33389 31.5 2.79932 28.9724 1.75235C26.4448 0.705374 23.7357 0.166504 20.9998 0.166504Z" fill="#F8F8F8"/>
</svg>
